HIERARCHY
ROOT Hips
{
	OFFSET 0.000000 0.000000 0.000000
	CHANNELS 6 Xposition Yposition Zposition Xrotation Yrotation Zrotation
	JOINT LeftUpLeg_virtual
	{
		OFFSET 0.000000 0.000000 0.000000
		CHANNELS 3 Xrotation Yrotation Zrotation
		JOINT LeftUpLeg
		{
			OFFSET 10.205400 -3.823500 0.155100
			CHANNELS 3 Xrotation Yrotation Zrotation
			JOINT LeftLeg
			{
				OFFSET 0.708757 -12.982077 0.567790
				CHANNELS 3 Xrotation Yrotation Zrotation
				JOINT LeftFoot
				{
					OFFSET -0.708756 -10.717838 -2.184338
					CHANNELS 3 Xrotation Yrotation Zrotation
					JOINT LeftToeBase
					{
						OFFSET 0.108149 -7.191104 7.560241
						CHANNELS 3 Xrotation Yrotation Zrotation
						JOINT LeftToe_End
						{
							OFFSET 0.070230 0.081724 4.490308
							CHANNELS 3 Xrotation Yrotation Zrotation
							End Site
							{
								OFFSET 0 0 0
							}
						}
					}
				}
			}
		}
	}
	JOINT RightUpLeg_virtual
	{
		OFFSET 0.000000 0.000000 0.000000
		CHANNELS 3 Xrotation Yrotation Zrotation
		JOINT RightUpLeg
		{
			OFFSET -10.205400 -3.823500 0.005500
			CHANNELS 3 Xrotation Yrotation Zrotation
			JOINT RightLeg
			{
				OFFSET -0.708756 -12.982134 0.610632
				CHANNELS 3 Xrotation Yrotation Zrotation
				JOINT RightFoot
				{
					OFFSET 0.708754 -10.717769 -1.945823
					CHANNELS 3 Xrotation Yrotation Zrotation
					JOINT RightToeBase
					{
						OFFSET -0.108140 -7.191069 7.372968
						CHANNELS 3 Xrotation Yrotation Zrotation
						JOINT RightToe_End
						{
							OFFSET -0.070227 0.081735 4.479403
							CHANNELS 3 Xrotation Yrotation Zrotation
							End Site
							{
								OFFSET 0 0 0
							}
						}
					}
				}
			}
		}
	}
	JOINT Spine_virtual
	{
		OFFSET 0.000000 0.000000 0.000000
		CHANNELS 3 Xrotation Yrotation Zrotation
		JOINT Spine
		{
			OFFSET 0.000000 6.876099 0.125700
			CHANNELS 3 Xrotation Yrotation Zrotation
			JOINT Spine1
			{
				OFFSET 0.000000 5.730043 0.104720
				CHANNELS 3 Xrotation Yrotation Zrotation
				JOINT Spine1_split
				{
					OFFSET 0.000000 5.730043 0.104720
					CHANNELS 3 Xrotation Yrotation Zrotation
					JOINT Spine2
					{
						OFFSET 0.000000 5.730043 0.104720
						CHANNELS 3 Xrotation Yrotation Zrotation
						JOINT Neck_virtual
						{
							OFFSET 0.000000 0.000000 0.000000
							CHANNELS 3 Xrotation Yrotation Zrotation
							JOINT Neck
							{
								OFFSET 0.000000 10.314075 0.188496
								CHANNELS 3 Xrotation Yrotation Zrotation
								JOINT Head
								{
									OFFSET 0.000000 7.643700 -2.377400
									CHANNELS 3 Xrotation Yrotation Zrotation
									JOINT HeadTop_End
									{
										OFFSET 0.000000 43.788605 -13.619600
										CHANNELS 3 Xrotation Yrotation Zrotation
										End Site
										{
											OFFSET 0 0 0
										}
									}
								}
							}
						}
						JOINT LeftShoulder_virtual
						{
							OFFSET 0.000000 0.000000 0.000000
							CHANNELS 3 Xrotation Yrotation Zrotation
							JOINT LeftShoulder
							{
								OFFSET 2.196100 4.412489 0.087492
								CHANNELS 3 Xrotation Yrotation Zrotation
								JOINT LeftShoulder_split
								{
									OFFSET 2.196100 4.412489 0.087492
									CHANNELS 3 Xrotation Yrotation Zrotation
									JOINT LeftArm
									{
										OFFSET 8.771219 -2.981674 -0.026999
										CHANNELS 3 Xrotation Yrotation Zrotation
										JOINT LeftForeArm
										{
											OFFSET 8.512804 0.000000 -0.000000
											CHANNELS 3 Xrotation Yrotation Zrotation
											JOINT LeftHand
											{
												OFFSET 18.484802 0.000000 -0.000000
												CHANNELS 3 Xrotation Yrotation Zrotation
												End Site
												{
													OFFSET 0 0 0
												}
											}
										}
									}
								}
							}
						}
						JOINT RightShoulder_virtual
						{
							OFFSET 0.000000 0.000000 0.000000
							CHANNELS 3 Xrotation Yrotation Zrotation
							JOINT RightShoulder
							{
								OFFSET -2.196100 4.412496 0.070690
								CHANNELS 3 Xrotation Yrotation Zrotation
								JOINT RightShoulder_split
								{
									OFFSET -2.196100 4.412496 0.070690
									CHANNELS 3 Xrotation Yrotation Zrotation
									JOINT RightArm
									{
										OFFSET -8.771282 -2.981682 -0.094208
										CHANNELS 3 Xrotation Yrotation Zrotation
										JOINT RightForeArm
										{
											OFFSET -8.494598 0.000000 0.000000
											CHANNELS 3 Xrotation Yrotation Zrotation
											JOINT RightHand
											{
												OFFSET -18.483803 0.000000 0.000001
												CHANNELS 3 Xrotation Yrotation Zrotation
												End Site
												{
													OFFSET 0 0 0
												}
											}
										}
									}
								}
							}
						}
					}
				}
			}
		}
	}
}
MOTION
Frames: 4
Frame Time: 0.03333333
2.050150 26.807186 -3.733496 0.000000 0.000000 0.000000 -5.481719 -35.699090 14.611918 -11.069913 32.358749 2.612452 52.306316 -3.590775 4.258074 -29.589401 19.862371 -7.095224 0.196885 -0.908740 -0.997553 0.000000 0.000000 0.000000 -4.816182 -32.335772 14.839834 -32.311453 12.471686 -34.640903 72.635920 13.142177 -6.763518 -34.287263 -21.933341 41.609068 5.934460 8.410866 -24.898661 0.000000 0.000000 0.000000 -7.849720 -30.888462 13.437349 -2.268615 -7.714659 5.452759 3.730145 -0.244480 2.426329 0.100233 -0.498006 0.044059 0.000000 0.000000 0.000000 2.475307 2.286939 3.021099 -17.651364 18.606265 19.577714 10.468115 -22.301189 -34.666782 0.000000 0.000000 0.000000 4.595061 -0.654588 2.955270 -0.873314 -5.750346 14.912574 -7.069072 1.814819 0.052305 -26.574241 -36.118409 -27.676765 83.742538 -83.571203 78.610826 0.000000 0.000000 0.000000 3.814192 0.348323 2.911211 -2.083379 6.177534 12.235253 -5.250408 -4.278267 5.146416 37.352307 68.724803 -9.241846 -17.173445 45.446453 26.905712 0.000000 0.000000 0.000000 
2.395365 26.941286 -3.521498 0.000000 0.000000 0.000000 -4.430059 -34.707483 15.421083 -12.336388 32.025982 1.510160 51.540249 -3.573447 4.586492 -28.634427 18.727475 -6.598424 0.096913 -0.645007 -1.665099 0.000000 0.000000 0.000000 -3.997823 -31.403717 15.566951 -33.549558 12.608158 -34.791460 72.114736 13.034927 -6.227136 -32.858606 -21.056886 41.238452 5.039930 8.456653 -24.579190 0.000000 0.000000 0.000000 -6.786814 -29.607081 14.345822 -1.898119 -7.336130 5.544518 3.631708 -0.200560 2.361144 0.112120 -0.443429 0.007614 0.000000 0.000000 0.000000 2.443860 2.353579 2.946562 -17.834179 18.344420 18.856417 10.155197 -21.799121 -34.942899 0.000000 0.000000 0.000000 4.402955 -0.489047 2.830138 -0.839070 -5.908511 14.734658 -6.258072 1.930081 -0.181678 -25.658485 -36.620435 -27.296964 108.433802 -83.517709 103.934251 0.000000 0.000000 0.000000 3.933622 0.499703 2.851834 -2.050256 5.222710 12.669548 -4.857559 -4.089898 4.681767 38.577305 69.104166 -10.637124 -16.018458 44.559379 25.571880 0.000000 0.000000 0.000000 
2.734710 27.181433 -3.343330 0.000000 0.000000 0.000000 -3.456547 -33.538411 16.132188 -13.465894 31.921593 0.391479 50.094448 -3.555596 4.758546 -27.595339 17.401681 -6.285420 0.513020 -0.404072 -2.074493 0.000000 0.000000 0.000000 -3.200846 -30.588794 16.269611 -35.047179 12.541197 -34.679374 71.030689 13.039138 -5.753019 -31.399189 -19.813061 40.371927 4.791143 8.193270 -24.173195 0.000000 0.000000 0.000000 -5.799616 -28.075897 15.127860 -1.278283 -7.010425 5.839442 3.536679 -0.129740 2.281191 0.097622 -0.469048 -0.030156 0.000000 0.000000 0.000000 2.495430 2.420911 2.862715 -18.164091 17.958627 18.161642 9.405601 -21.229063 -35.537454 0.000000 0.000000 0.000000 4.210836 -0.296754 2.679324 -0.876367 -5.775326 14.257768 -5.487777 1.978340 -0.385466 -23.684004 -36.647271 -26.845907 127.150925 -82.368455 123.317262 0.000000 0.000000 0.000000 4.039549 0.640387 2.746195 -1.956640 4.434018 12.844822 -4.602984 -3.940492 4.487278 42.288300 69.272803 -15.085376 -14.934299 43.410838 24.279048 0.000000 0.000000 0.000000 
3.052555 27.504120 -3.206200 0.000000 0.000000 0.000000 -2.590088 -32.164624 16.687580 -14.334636 31.930369 -0.714023 48.079249 -3.467392 4.767759 -26.561294 16.005645 -5.913988 1.323138 -0.210047 -2.121158 0.000000 0.000000 0.000000 -2.463910 -29.710367 16.872140 -36.670647 12.225255 -34.342734 69.367032 13.090754 -5.284587 -30.037031 -18.311085 38.926242 5.350895 7.631254 -23.783812 0.000000 0.000000 0.000000 -4.916707 -26.322383 15.727291 -0.468966 -6.763152 6.213179 3.430229 -0.019234 2.196579 0.085942 -0.578781 -0.043866 0.000000 0.000000 0.000000 2.695396 2.508196 2.777266 -18.528447 17.501923 17.516811 8.175993 -20.506188 -36.314637 0.000000 0.000000 0.000000 4.029747 -0.088466 2.510931 -1.003336 -5.373144 13.574545 -4.774779 2.008875 -0.386952 -21.277723 -36.220558 -26.518860 137.109245 -81.047530 133.941034 0.000000 0.000000 0.000000 4.083721 0.747586 2.603789 -1.787971 3.819996 12.739579 -4.478532 -3.905348 4.580983 47.995493 69.255509 -21.932919 -14.019681 41.895807 23.123197 0.000000 0.000000 0.000000 
